<svg width="100" height="100" viewBox="0 0 100 100" fill="none" xmlns="http://www.w3.org/2000/svg">
<path fill-rule="evenodd" clip-rule="evenodd" d="M99.1212 21.665C98.2425 15.1297 96.4852 10.5441 92.9706 7.02944C89.4559 3.5148 84.8703 1.75745 78.335 0.87875C77.7223 0.796367 77.0926 0.721708 76.4449 0.654048C70.1842 0 62.2542 0 52 0H48C36.989 0 28.658 0 22.196 0.809804C15.3769 1.66428 10.6385 3.42037 7.02944 7.02944C3.5148 10.5441 1.75745 15.1297 0.87875 21.665C0.796367 22.2777 0.721708 22.9075 0.654048 23.5551C0 29.8158 0 37.7458 0 48V52C0 63.011 0 71.342 0.809804 77.804C1.66428 84.6231 3.42037 89.3615 7.02944 92.9706C10.0507 95.9918 13.8634 97.7145 19.0257 98.6968C25.8735 100 35.0966 100 48 100H52C63.315 100 71.8 100 78.335 99.1212C84.8703 98.2425 89.4559 96.4852 92.9706 92.9706C95.9918 89.9493 97.7145 86.1366 98.6968 80.9743C100 74.1265 100 64.9034 100 52V48C100 36.685 100 28.2 99.1212 21.665ZM42.53 31.56C41.3 33.24 41.3 36.16 41.3 42V58C41.3 63.83 41.3 66.75 42.53 68.44C43.6 69.91 45.24 70.86 47.05 71.05C49.1216 71.2691 51.6296 69.8218 56.6487 66.9254L70.6952 58.8118C75.6552 55.944 78.1476 54.5029 78.99 52.61C79.73 50.95 79.73 49.05 78.99 47.39C78.14 45.49 75.62 44.03 70.56 41.11L56.71 33.11C51.65 30.19 49.12 28.73 47.05 28.95C45.24 29.14 43.6 30.09 42.53 31.56ZM27.1346 95.6338C25.3587 95.5164 23.7197 95.3615 22.1985 95.157C16.1065 94.3379 12.5055 92.7898 9.85786 90.1421C7.21022 87.4945 5.66206 83.8935 4.84301 77.8015C4.00849 71.5945 4 63.4268 4 52V48C4 36.5732 4.00849 28.4055 4.84301 22.1985C5.66206 16.1065 7.21022 12.5055 9.85786 9.85786C12.5055 7.21022 16.1065 5.66206 22.1985 4.84301C23.7067 4.64023 25.3308 4.48622 27.0892 4.36926C25.852 5.11589 24.7285 5.9915 23.7 7.02C16.67 14.05 16.67 25.36 16.67 47.99V51.99C16.67 74.62 16.67 85.93 23.7 92.96C24.7391 93.9991 25.8794 94.8821 27.1346 95.6338Z" fill="white"/>
</svg>
